<svg xmlns="http://www.w3.org/2000/svg" viewBox="0 0 900 650"><defs><linearGradient id="a" x1="0" y1="0" x2="1" y2="1"><stop stop-color="#f4e5d4"/><stop offset="1" stop-color="#e5c2a0"/></linearGradient><radialGradient id="b"><stop stop-color="#f6d5a9"/><stop offset=".75" stop-color="#ad5f35"/><stop offset="1" stop-color="#744022"/></radialGradient></defs><rect width="900" height="650" rx="42" fill="url(#a)"/><ellipse cx="450" cy="520" rx="250" ry="42" fill="#7d5139" opacity=".14"/><path d="M286 273h328v194c0 36-29 65-65 65H351c-36 0-65-29-65-65Z" fill="#fffaf6"/><path d="M614 320h38c55 0 71 74 10 100l-48 15" fill="none" stroke="#fffaf6" stroke-width="32" stroke-linecap="round"/><ellipse cx="450" cy="273" rx="164" ry="72" fill="#f7eee4"/><ellipse cx="450" cy="262" rx="144" ry="57" fill="url(#b)"/><path d="M384 253c24-30 52-35 72-7 20-28 53-26 69 6" fill="none" stroke="#f7e4cb" stroke-width="24" stroke-linecap="round"/><circle cx="431" cy="236" r="13" fill="#a75c34" opacity=".75"/><circle cx="481" cy="253" r="13" fill="#a75c34" opacity=".75"/><circle cx="518" cy="228" r="11" fill="#a75c34" opacity=".75"/></svg>
