<svg xmlns="http://www.w3.org/2000/svg" viewBox="0 0 900 650"><defs><linearGradient id="a" x1="0" y1="0" x2="1" y2="1"><stop stop-color="#edf7de"/><stop offset="1" stop-color="#c8dfa7"/></linearGradient><linearGradient id="b" x1="0" y1="0" x2="0" y2="1"><stop stop-color="#f4c777"/><stop offset="1" stop-color="#c77c39"/></linearGradient></defs><rect width="900" height="650" rx="42" fill="url(#a)"/><ellipse cx="450" cy="502" rx="280" ry="36" fill="#5b7b38" opacity=".18"/><path d="M234 355l209-112 222 115-17 118c-3 24-24 39-48 35L283 474c-24-4-41-25-38-49Z" fill="#f8d38e" stroke="#bd7837" stroke-width="8"/><path d="M246 350l200-106 210 112-17 36-205-110-188 102Z" fill="url(#b)"/><path d="M269 382l178-95 188 101-12 31-184-98-160 86Z" fill="#68a052"/><path d="M294 424l157-83 164 89-8 24-164-88-143 75Z" fill="#ef6750"/><path d="M316 455l137-72 141 76-8 26-144-76-119 63Z" fill="#f5f0db"/><circle cx="368" cy="329" r="9" fill="#fff" opacity=".6"/><circle cx="522" cy="348" r="9" fill="#fff" opacity=".6"/></svg>
