<svg xmlns="http://www.w3.org/2000/svg" viewBox="0 0 900 650"><defs><linearGradient id="a" x1="0" y1="0" x2="1" y2="1"><stop stop-color="#ffe5ea"/><stop offset="1" stop-color="#f3b6c5"/></linearGradient><linearGradient id="b" x1="0" y1="0" x2="0" y2="1"><stop stop-color="#f87891"/><stop offset="1" stop-color="#ce4d6c"/></linearGradient></defs><rect width="900" height="650" rx="42" fill="url(#a)"/><circle cx="140" cy="120" r="90" fill="#fff" opacity=".22"/><ellipse cx="450" cy="530" rx="220" ry="35" fill="#b84d67" opacity=".16"/><path d="M335 185h230l-22 285c-3 37-34 65-72 65h-42c-38 0-69-28-72-65Z" fill="#f9fbff" opacity=".9" stroke="#dcb6c1" stroke-width="8"/><path d="M336 248h228l-21 222c-3 30-28 52-59 52h-68c-31 0-56-22-59-52Z" fill="url(#b)" opacity=".88"/><path d="M444 185l-20-74M471 185l34-72" stroke="#c46a7b" stroke-width="10" stroke-linecap="round"/><path d="M430 102l-3 12M470 108l-4 12" stroke="#fff" stroke-width="7" stroke-linecap="round" opacity=".75"/><path d="M386 278c44 19 102 19 152 0" fill="none" stroke="#ffb3c1" stroke-width="10" stroke-linecap="round" opacity=".75"/><circle cx="455" cy="295" r="18" fill="#fff" opacity=".26"/></svg>